# xmcd
#
# Track frame offsets: 
#        150
#        22687
#        40611
#        57046
#        80491
#        93850
#        116920
#        140170
#        155915
#        172882
#        195372
#        214254
#        238387
#        264149
#        281726
#        293619
#        317019
#        338004
#
# Disc length: 4792 seconds
#
# Revision: 0
# Processed by: cddbd v1.5.2PL0 Copyright (c) Steve Scherf et al.
# Submitted via: ExactAudioCopy v1.3
#
DISCID=f912b612
DTITLE=Various Artist - Blues - Golden Age '60s -'70s  vol.10  CD2
DYEAR=2018
DGENRE=Rock
TTITLE0=Robin Trower - 1974 - Day Of The Eagle
TTITLE1=The Beatles - 1968 - Yer Blues
TTITLE2=Uriah Heep - 1970 - Real Turned On
TTITLE3=Livin' Blues - 1976 - Rock and Roll Hoochie Coo
TTITLE4=Jimi Hendrix - 1967 - Mr. Bad Luck
TTITLE5=Johnny Winter - 1969 - Highway 61 Revisited
TTITLE6=Peter Green - 1979 - Cryin' Won't Bring You Back
TTITLE7=Freddie King - 1974 - Let The Good Times Roll
TTITLE8=Bread - 1972 - The Guitar Man
TTITLE9=Derek and the Dominos - 1970 - Nobody Knows You When You're Do
TTITLE9=wn and Out
TTITLE10=Janis Joplin - 1969 - One Good Man
TTITLE11=Herman Brood and His Wild Romance - 1977 - Turn It On
TTITLE12=The Rolling Stones - 1971 - Wild Horses
TTITLE13=Maggie Bell - 1975 - If You Don't Know
TTITLE14=The Barry Goldberg Blues Band - 1965 - Think
TTITLE15=Creepy John Thomas - 1970 - Down In The Bottom
TTITLE16=Chain - 1972 - Reconsider, Baby
TTITLE17=Rare Earth - 1973 - Come with Me
EXTD=
EXTT0=
EXTT1=
EXTT2=
EXTT3=
EXTT4=
EXTT5=
EXTT6=
EXTT7=
EXTT8=
EXTT9=
EXTT10=
EXTT11=
EXTT12=
EXTT13=
EXTT14=
EXTT15=
EXTT16=
EXTT17=
PLAYORDER=
